HIERARCHY
ROOT pelvis
{
  OFFSET 0 100 0
  CHANNELS 6 Xposition Yposition Zposition Zrotation Xrotation Yrotation
  JOINT pelvis_right_femur
  {
    OFFSET -10.78128 -3.44521 -0.5502486
    CHANNELS 3 Zrotation Xrotation Yrotation
    JOINT right_femur_tibia
    {
      OFFSET -0.8047443 -44.0398 -0.1307829
      CHANNELS 3 Zrotation Xrotation Yrotation
      JOINT right_tibia_foot
      {
        OFFSET 3.006224 -47.83518 -5
        CHANNELS 3 Zrotation Xrotation Yrotation
        End Site
        {
          OFFSET 0 -5 15
        }
      }
    }
  }
  JOINT pelvis_left_femur
  {
    OFFSET 10.78128 -3.44521 -0.5502486
    CHANNELS 3 Zrotation Xrotation Yrotation
    JOINT left_femur_tibia
    {
      OFFSET 0.8047443 -44.0398 -0.1307829
      CHANNELS 3 Zrotation Xrotation Yrotation
      JOINT left_tibia_foot
      {
        OFFSET -4.370144 -48.10324 -4.275266
        CHANNELS 3 Zrotation Xrotation Yrotation
        End Site
        {
          OFFSET 0 -5 15
        }
      }
    }
  }
  JOINT pelvis_spine1
  {
    OFFSET 0 6.468898 -3.129235
    CHANNELS 3 Zrotation Xrotation Yrotation
    JOINT spine1
    {
      OFFSET 0 23.15396 4.99043
      CHANNELS 3 Zrotation Xrotation Yrotation
      JOINT spine2
      {
        OFFSET 0 20.79997 -5.064912
        CHANNELS 3 Zrotation Xrotation Yrotation
        JOINT neck
        {
          OFFSET 0 14.38658 9.616178
          CHANNELS 3 Zrotation Xrotation Yrotation
          End Site
          {
            OFFSET 0 20 0
          }
        }
      }
      JOINT right_manubrium
      {
        OFFSET -5.722621 16.35077 3.967754
        CHANNELS 3 Zrotation Xrotation Yrotation
        JOINT right_clavicle
        {
          OFFSET -13.16364 1.694482 -4.693211
          CHANNELS 3 Zrotation Xrotation Yrotation
          JOINT right_humerus
          {
            OFFSET -28.5034 -0.3100689 -2.792744
            CHANNELS 3 Zrotation Xrotation Yrotation
            JOINT right_radius
            {
              OFFSET -25.15693 0.02248979 -1.271978
              CHANNELS 3 Zrotation Xrotation Yrotation
              End Site
              {
                OFFSET -15 0 0
              }
            }
          }
        }
      }
      JOINT left_manubrium
      {
        OFFSET 5.722621 16.35077 3.967754
        CHANNELS 3 Zrotation Xrotation Yrotation
        JOINT left_clavicle
        {
          OFFSET 13.16364 1.694482 -4.693211
          CHANNELS 3 Zrotation Xrotation Yrotation
          JOINT left_humerus
          {
            OFFSET 29.39168 -1.063119 -2.237045
            CHANNELS 3 Zrotation Xrotation Yrotation
            JOINT left_radius
            {
              OFFSET 24.59957 -0.9528479 0.9047498
              CHANNELS 3 Zrotation Xrotation Yrotation
              End Site
              {
                OFFSET 15 -0 -0
              }
            }
          }
        }
      }
    }
  }
}
MOTION
Frames: 11
Frame Time: 0.0416666666667
0 103.5113 0 1.094578 -3.601465 -0.3646175 3.247444 -8.770295 11.97785 -0 36.36778 -0 -3.007694 -22.99115 -7.318212 -7.16378 11.747 -25.56231 -0 13.11314 -0 0.7213124 -17.86 25.326 -3.198341 -3.479207 4.707828 2.70773 8.200453 -7.621994 1.559338 22.79536 6.38957 2.357101 -22.41745 9.021064 5.209154 -20.20687 11.00516 86.20226 29.50255 -20.37892 -0 0 19.49661 -4.821619 5.790611 4.47434 3.79415 -16.33746 -2.31557 -103.4143 39.27708 31.1238 0 0 -13.40335 -11.58847 12.34187 27.7236
0.1659108 103.3922 1.241695 0.8165077 -2.158168 -0.4450803 3.582232 -15.65537 9.420356 -0 38.91838 -0 -5.095866 -16.33566 -5.433937 -6.332542 13.90474 -24.85987 -0 5.390695 -0 1.037638 -20.51617 23.60384 -3.713178 -3.110612 3.511107 2.6042 8.286752 -8.103596 0.8482283 22.6792 7.565906 3.748679 -23.30236 8.587642 6.174061 -19.6027 11.34678 86.38079 33.83731 -21.6326 -0 0 17.11879 -6.764038 7.072849 4.59265 4.095991 -18.46682 -3.244438 -100.4403 39.44292 29.00344 0 0 -18.54113 -10.29042 14.96569 26.1918
0.3786878 103.1311 3.093402 -0.003631847 -1.893857 -0.5718022 4.535512 -18.22285 10.07494 -0 35.84388 -0 -4.694506 -14.14352 -6.216995 -6.146187 13.01378 -22.18237 -0 9.039093 -0 -0.3380843 -21.03111 22.00797 -2.601615 -2.421608 4.061153 2.631572 8.608304 -8.424085 1.211593 21.92642 7.06166 3.1686 -24.12627 8.697143 5.018195 -20.09206 11.11408 87.5932 30.64634 -22.04982 -0 0 17.29548 -6.936284 6.856427 5.043866 4.437791 -19.01857 -2.951341 -99.75973 38.37764 28.53638 0 0 -18.94655 -9.462106 12.90902 26.70974
0.6015973 102.7649 5.250937 -0.5050546 -1.712382 -0.7815617 5.319966 -19.07572 10.99826 -0 32.70997 -0 -4.06503 -14.49712 -6.90982 -6.045555 12.39778 -21.43604 -0 12.24858 -0 -1.477163 -21.33053 21.53838 -1.835464 -1.974865 4.557026 2.63456 8.376035 -8.297216 1.702909 21.61362 6.632071 2.670343 -24.58244 9.127759 4.198955 -20.24903 10.75716 88.03649 28.38071 -21.82968 -0 0 17.84292 -6.097288 6.497247 4.783249 4.764166 -18.70758 -2.391564 -100.5335 38.18357 29.02792 0 0 -18.01987 -9.269157 11.93787 27.33434
0.8318283 102.3041 7.636166 -0.8666594 -1.109738 -1.063658 6.053098 -20.10413 11.75091 -0 28.67877 -0 -3.349363 -15.15439 -7.228274 -5.98933 11.86353 -21.42448 -0 14.93892 -0 -2.593699 -21.75934 21.16782 -1.259763 -1.576368 5.03194 2.667741 7.944675 -8.067726 2.142903 21.29313 6.469659 2.455377 -25.08981 9.675431 3.831755 -20.19464 10.45391 88.0393 27.31149 -21.57727 -0 0 18.43301 -5.192738 6.529033 4.424436 5.174744 -18.24462 -1.757526 -101.6497 38.18721 29.7827 0 0 -17.06299 -9.234061 11.40987 27.89718
1.041805 101.7465 10.24228 -1.08493 0.1331759 -1.275188 6.589433 -22.87033 11.34495 -0 24.59089 -0 -3.204776 -13.91394 -6.62989 -5.806466 11.91343 -21.52565 -0 15.14198 -0 -3.620326 -22.76909 20.16087 -1.059266 -1.143807 5.078386 2.717997 7.488407 -7.938712 2.2465 20.96534 6.879724 2.879368 -25.71643 10.06635 4.154797 -19.74942 10.38133 87.70416 28.50375 -21.666 -0 0 18.1695 -5.234088 7.35742 4.32423 5.677928 -18.33224 -1.438743 -101.6966 38.14144 29.64044 0 0 -17.6735 -8.88649 11.79606 27.70513
1.209812 101.0798 13.09492 -1.192521 1.924209 -1.288165 6.855776 -27.21924 9.823147 -0 20.56594 -0 -3.693857 -10.81441 -5.212547 -5.478145 12.48106 -21.57068 -0 13.21197 -0 -4.66212 -24.18424 18.41459 -1.164899 -0.6690685 4.705459 2.78066 7.045764 -7.924596 2.030671 20.61657 7.786166 3.874194 -26.41356 10.26932 5.085567 -18.93561 10.52146 87.13559 31.69485 -22.068 -0 0 17.07588 -6.227302 8.898808 4.548492 6.245808 -18.95642 -1.43653 -100.5904 37.95185 28.5247 0 0 -19.75967 -8.164243 12.91337 26.73534
1.320269 100.297 16.24233 -1.244112 4.083605 -0.9986493 6.684324 -32.70145 7.248499 -0 16.86967 -0 -4.902453 -6.199777 -3.107152 -4.994877 13.46286 -21.43054 -0 9.710843 -0 -5.810976 -25.71003 15.91877 -1.48938 -0.1632551 3.942642 2.848232 6.65163 -8.026063 1.533213 20.25513 9.057247 5.309398 -27.09622 10.25135 6.492741 -17.79429 10.83156 86.52043 36.4673 -22.74052 -0 0 15.2436 -8.098448 10.97167 5.157652 6.808711 -20.03182 -1.738883 -98.37504 37.50442 26.46171 0 0 -23.04919 -7.025034 14.53156 25.00434
1.367736 99.40449 19.75091 -1.322924 6.343244 -0.342536 5.919318 -38.50321 3.793945 -0 13.82795 -0 -6.813111 -0.7962401 -0.5304181 -4.373489 14.65994 -21.00559 -0 5.601548 -0 -7.112347 -26.90443 12.80975 -1.904771 0.3403311 2.879405 2.915152 6.337701 -8.226968 0.8305057 19.89964 10.48391 6.960471 -27.66263 9.989915 8.177244 -16.41401 11.24414 86.07227 42.13885 -23.62142 -0 0 12.88703 -10.62736 13.28179 6.163983 7.261292 -21.3679 -2.292036 -95.31303 36.67314 23.66996 0 0 -26.99762 -5.480146 16.30921 22.62902
1.360681 98.43301 23.7023 -1.511065 8.317979 0.6799382 4.607083 -43.43899 -0.1186432 -0 11.81449 -0 -9.184113 4.343479 2.117032 -3.666293 15.7769 -20.18661 -0 2.278771 -0 -8.475646 -27.20036 9.441259 -2.251138 0.7752552 1.674274 2.979472 6.147544 -8.501331 0.03689078 19.59266 11.77186 8.494566 -27.989 9.466276 9.853466 -14.94993 11.68022 85.95447 47.69921 -24.6058 -0 0 10.32374 -13.43941 15.42927 7.48659 7.471805 -22.68452 -3.00395 -91.85666 35.36249 20.53146 0 0 -30.80871 -3.632429 17.79859 19.85271
1.324944 97.45192 28.18482 -1.829557 9.514895 1.964339 3.294586 -46.07459 -3.534243 -0 11.13216 -0 -11.41066 7.985472 4.130826 -2.973084 16.44029 -18.86628 -0 1.525205 -0 -9.618894 -26.02022 6.448483 -2.362441 1.038266 0.5725218 3.042905 6.142456 -8.811143 -0.691789 19.40583 12.56179 9.491956 -27.93748 8.690424 11.14988 -13.6333 12.06118 86.15123 51.83592 -25.45575 -0 0 7.95443 -15.99391 16.96398 8.898417 7.317934 -23.64276 -3.732091 -88.60573 33.58117 17.5446 0 0 -33.50319 -1.723221 18.50022 17.08049
